<svg width="45" height="45" viewBox="0 0 45 45" fill="none" xmlns="http://www.w3.org/2000/svg">
<path d="M37.5 9.375H17.2892C17.024 9.375 16.7696 9.48036 16.5821 9.66789L4.45711 21.7929C4.06658 22.1834 4.06658 22.8166 4.45711 23.2071L16.5821 35.3321C16.7696 35.5196 17.024 35.625 17.2892 35.625H37.5C38.4946 35.625 39.4484 35.2299 40.1516 34.5266C40.8549 33.8234 41.25 32.8696 41.25 31.875V13.125C41.25 12.1304 40.8549 11.1766 40.1516 10.4733C39.4484 9.77009 38.4946 9.375 37.5 9.375Z" stroke="#FF5959" stroke-width="3" stroke-linecap="round" stroke-linejoin="round"/>
<path d="M33.75 16.875L22.5 28.125" stroke="#FF5959" stroke-width="3" stroke-linecap="round" stroke-linejoin="round"/>
<path d="M22.5 16.875L33.75 28.125" stroke="#FF5959" stroke-width="3" stroke-linecap="round" stroke-linejoin="round"/>
</svg>
